<?xml version="1.0" encoding="iso-8859-1"?>
<!-- Generator: Adobe Illustrator 28.5.0, SVG Export Plug-In . SVG Version: 9.03 Build 54727)  -->
<svg version="1.1" id="Layer_1" xmlns="http://www.w3.org/2000/svg" xmlns:xlink="http://www.w3.org/1999/xlink" x="0px" y="0px"
	 width="1080px" height="1080px" viewBox="0 0 1080 1080" enable-background="new 0 0 1080 1080" xml:space="preserve">
<path fill="#ED5D45" d="M809.065,351.312H106.647c-7.229,0-13.089,5.86-13.089,13.089v149.759c0,7.229,5.86,13.089,13.089,13.089
	h36.722l115.259,98.968l-43.659-98.968h594.096c7.229,0,13.089-5.86,13.089-13.089V364.401
	C822.154,357.172,816.294,351.312,809.065,351.312z"/>
<path fill="#ED5D45" d="M966.621,551.777h-18.826l-106.689-91.609l40.413,91.609H286.175c-6.38,0-11.553,5.173-11.553,11.553
	v152.831c0,6.381,5.173,11.553,11.553,11.553h680.446c6.38,0,11.553-5.172,11.553-11.553V563.33
	C978.174,556.95,973.001,551.777,966.621,551.777z"/>
<g>
	<g>
		<path fill="#FFFFFF" d="M203.326,444.523h-49.262v44.337h-19.001v-98.525h19.001v37.299h49.262v-37.299h19.001v98.525h-19.001
			V444.523z"/>
	</g>
	<g>
		<path fill="#FFFFFF" d="M286.363,407.224v20.409h30.261v16.889h-30.261v27.446h41.521v16.89h-60.522v-98.525h59.115v16.89H286.363
			z"/>
	</g>
	<g>
		<path fill="#FFFFFF" d="M360.249,488.859l42.225-98.525h13.371l42.225,98.525h-19.845l-9.291-21.817h-39.55l-9.289,21.817H360.249
			z M396.562,450.153h25.053l-12.526-29.136L396.562,450.153z"/>
	</g>
	<g>
		<path fill="#FFFFFF" d="M510.845,445.227v43.632h-19.001v-98.525h35.892c10.134,0,16.608,2.815,21.534,7.319
			c5.349,5.067,8.727,12.245,8.727,20.127s-3.377,15.06-8.727,20.127c-2.673,2.533-5.912,4.504-9.851,5.771l36.875,45.181h-23.505
			l-35.047-43.632H510.845z M526.609,428.337c5.489,0,7.882-1.126,9.57-2.956c1.689-1.83,2.815-4.645,2.815-7.46
			c0-2.956-1.126-5.77-2.815-7.6c-1.688-1.83-4.082-3.096-9.57-3.096h-15.764v21.112H526.609z"/>
	</g>
	<g>
		<path fill="#FFFFFF" d="M664.962,390.334v16.89h-26.039v81.635h-19.001v-81.635h-26.039v-16.89H664.962z"/>
	</g>
</g>
<g>
	<g>
		<path fill="#FFFFFF" d="M717.619,418.622c12.639,0,21.358,9.421,21.358,21.066c0,11.644-8.719,21.065-21.358,21.065
			c-12.639,0-21.358-9.421-21.358-21.065C696.261,428.043,704.981,418.622,717.619,418.622z M717.619,453.731
			c7.725,0,13.459-6.319,13.459-14.043c0-7.725-5.734-14.044-13.459-14.044s-13.457,6.319-13.457,14.044
			C704.162,447.412,709.895,453.731,717.619,453.731z"/>
	</g>
	<g>
		<path fill="#FFFFFF" d="M762.673,426.229v8.484h12.58v7.022h-12.58v18.432h-7.901v-40.961h24.576v7.022H762.673z"/>
	</g>
</g>
<g>
	<g>
		<path fill="#FFFFFF" d="M349.836,592.447c15.624,0,25.898,3.378,33.921,9.29c12.104,9.008,19.565,23.646,19.565,39.973
			c0,16.327-7.461,30.964-19.565,39.972c-8.023,5.912-18.297,9.29-33.921,9.29h-30.964v-98.525H349.836z M377.143,620.316
			c-5.49-6.897-13.513-10.979-25.194-10.979h-14.076v64.745h14.076c11.681,0,19.704-4.082,25.194-10.979
			c4.503-5.63,7.178-13.23,7.178-21.393C384.321,633.546,381.646,625.946,377.143,620.316z"/>
	</g>
	<g>
		<path fill="#FFFFFF" d="M426.54,690.973l42.225-98.525h13.372l42.225,98.525h-19.846l-9.289-21.817h-39.552l-9.289,21.817H426.54z
			 M462.854,652.267h25.053l-12.528-29.136L462.854,652.267z"/>
	</g>
	<g>
		<path fill="#FFFFFF" d="M613.733,592.447v16.89h-26.039v81.635h-19.001v-81.635h-26.039v-16.89H613.733z"/>
	</g>
	<g>
		<path fill="#FFFFFF" d="M651.026,592.447h19v98.525h-19V592.447z"/>
	</g>
	<g>
		<path fill="#FFFFFF" d="M715.063,592.447h13.371l54.893,64.182v-64.182h19.001v98.525h-13.371l-54.893-64.182v64.182h-19.001
			V592.447z"/>
	</g>
	<g>
		<path fill="#FFFFFF" d="M859.326,641.71c0,19.142,14.639,33.78,33.64,33.78c9.008,0,16.327-3.096,21.957-7.6v-21.254h-25.336
			v-16.889h44.336v43.773c-8.725,11.119-23.364,18.861-41.38,18.861c-30.684,0-52.218-22.38-52.218-50.67
			c0-28.291,21.253-50.671,51.937-50.671c14.637,0,27.165,5.489,36.032,14.075l-12.245,12.949
			c-5.912-5.911-14.217-10.134-23.928-10.134C873.401,607.93,859.326,622.99,859.326,641.71z"/>
	</g>
</g>
<g>
</g>
<g>
</g>
<g>
</g>
<g>
</g>
<g>
</g>
<g>
</g>
<g>
</g>
<g>
</g>
<g>
</g>
<g>
</g>
<g>
</g>
<g>
</g>
<g>
</g>
<g>
</g>
<g>
</g>
</svg>
